<?xml version="1.0" encoding="utf-8"?>
<!-- Generator: Adobe Illustrator 23.0.1, SVG Export Plug-In . SVG Version: 6.00 Build 0)  -->
<svg version="1.1" id="Capa_1" xmlns="http://www.w3.org/2000/svg" xmlns:xlink="http://www.w3.org/1999/xlink" x="0px" y="0px"
	 viewBox="0 0 674.2 117.8" style="enable-background:new 0 0 674.2 117.8;" xml:space="preserve">
<style type="text/css">
	.st0{fill:none;stroke:#660000;stroke-width:4;stroke-linecap:round;stroke-linejoin:round;}
	.st1{fill:none;stroke:#006600;stroke-width:4;stroke-linecap:round;stroke-linejoin:round;}
	.st2{font-family:'LeelawadeeUI-Semilight';}
	.st3{font-size:22px;}
</style>
<g transform="matrix(1.0, 0.0, 0.0, 1.0, -63.05, -278.75)">
	<path class="st0" d="M349,336h237.6 M65.1,336h42.9 M254.1,336.1H297 M159.1,336h42.8 M632.5,336h102.7 M426.9,307.3v12.9
		 M426.9,307.3v12.9 M433.3,313.8h-12.9 M512.1,315.8h15.9 M602.1,329.8h15.9 M602.1,339.8h15.9 M130.9,329.3v12.8 M130.9,329.3
		v12.8 M137.3,335.8h-12.8 M219.1,335.8h15.9 M602.1,329.8h15.9 M602.1,339.8h15.9 M314.1,329.8h15.9 M314.1,339.8h15.9"/>
</g>
<text transform="matrix(1 0 0 1 15.5615 50.6431)" class="st1 st2 st3">5</text>
<text transform="matrix(1 0 0 1 15.3198 80.6431)" class="st1 st2 st3">4</text>
<text transform="matrix(1 0 0 1 113.3198 80.6431)" class="st1 st2 st3">4</text>
<text transform="matrix(1 0 0 1 205.3198 80.6431)" class="st1 st2 st3">4</text>
<text transform="matrix(1 0 0 1 112.5615 49.6431)" class="st1 st2 st3">3</text>
<text transform="matrix(1 0 0 1 205.8032 49.6431)" class="st1 st2 st3">7</text>
</svg>
