<?xml version="1.0" encoding="utf-8"?>
<!-- Generator: Adobe Illustrator 23.0.1, SVG Export Plug-In . SVG Version: 6.00 Build 0)  -->
<svg version="1.1" id="Capa_1" xmlns="http://www.w3.org/2000/svg" xmlns:xlink="http://www.w3.org/1999/xlink" x="0px" y="0px"
	 viewBox="0 0 674.2 117.8" style="enable-background:new 0 0 674.2 117.8;" xml:space="preserve">
<style type="text/css">
	.st0{fill:none;stroke:#660000;stroke-width:4;stroke-linecap:round;stroke-linejoin:round;}
	.st1{fill:none;stroke:#006600;stroke-width:2;stroke-linecap:round;stroke-linejoin:round;}
	.st2{font-family:'LeelawadeeUI-Semilight';}
	.st3{font-size:27px;}
</style>
<path class="st0" d="M182.1,341.7h217.6 M-1.9,341.7H41 M92.2,341.7H135 M565.6,341.7h102.7 M453,321.5 M437.2,321.5 M535.2,335.5
	H551 M535.2,345.5H551 M64,335v12.9 M64,335v12.9 M70.4,341.5H57.6 M535.2,335.5H551 M535.2,345.5H551 M437.6,341.7h89.7"/>
<text transform="matrix(1 0 0 1 10.387 335.1073)" class="st1 st2 st3">6</text>
<text transform="matrix(1 0 0 1 10.387 366.1073)" class="st1 st2 st3">5</text>
<text transform="matrix(1 0 0 1 111.387 366.1073)" class="st1 st2 st3">3</text>
<text transform="matrix(1 0 0 1 102.0017 334.1073)" class="st1 st2 st3">-2</text>
<g transform="matrix(1.0, 0.0, 0.0, 1.0, -63.05, -278.75)">
	<path class="st0" d="M349,336h237.6 M65.1,336h42.9 M254.1,336.1H297 M159.1,336h42.8 M632.5,336h102.7 M426.9,305.3v12.9
		 M426.9,305.3v12.9 M433.3,311.8h-12.9 M602.1,329.8h15.9 M602.1,339.8h15.9 M227.7,329.3v12.8 M234.2,335.8h-12.9 M123.9,335.8
		h15.9 M602.1,329.8h15.9 M602.1,339.8h15.9 M314.1,329.8h15.9 M314.1,339.8h15.9 M507.9,305.3v12.9 M507.9,305.3v12.9 M514.3,311.8
		h-12.9"/>
</g>
<text transform="matrix(1 0 0 1 14.2441 52.643)" class="st1 st2 st3">2</text>
<text transform="matrix(1 0 0 1 14.2441 82.643)" class="st1 st2 st3">3</text>
<text transform="matrix(1 0 0 1 111.9478 82.643)" class="st1 st2 st3">4</text>
<text transform="matrix(1 0 0 1 204.2441 82.643)" class="st1 st2 st3">2</text>
<text transform="matrix(1 0 0 1 111.2441 51.643)" class="st1 st2 st3">5</text>
<text transform="matrix(1 0 0 1 206.2944 51.643)" class="st1 st2 st3">1</text>
<g transform="matrix(1.0, 0.0, 0.0, 1.0, -63.05, -278.75)">
	<path class="st0" d="M345.2,480.6h237.6 M61.2,480.6h42.9 M250.2,480.8h42.9 M155.2,480.6h42.8 M628.7,480.6h102.7 M423,450v12.9
		 M423,450v12.9 M429.5,456.4h-12.9 M500.2,460.4h15.9 M598.2,474.4h15.8 M598.2,484.4h15.8 M127,474v12.9 M127,474v12.9
		 M133.5,480.4h-12.9 M215.2,480.4h15.9 M598.2,474.4h15.8 M598.2,484.4h15.8 M310.2,474.4h15.9 M310.2,484.4h15.9"/>
</g>
<text transform="matrix(1 0 0 1 10.387 197.2859)" class="st1 st2 st3">5</text>
<text transform="matrix(1 0 0 1 10.0906 227.2859)" class="st1 st2 st3">4</text>
<text transform="matrix(1 0 0 1 108.0906 227.2859)" class="st1 st2 st3">4</text>
<text transform="matrix(1 0 0 1 200.0906 227.2859)" class="st1 st2 st3">4</text>
<text transform="matrix(1 0 0 1 107.387 196.2859)" class="st1 st2 st3">3</text>
<text transform="matrix(1 0 0 1 200.6839 196.2859)" class="st1 st2 st3">7</text>
<line class="st0" x1="147.2" y1="335.5" x2="163" y2="335.5"/>
<line class="st0" x1="147.2" y1="345.5" x2="163" y2="345.5"/>
<g>
	<line class="st0" x1="243" y1="319" x2="243" y2="318.9"/>
</g>
<g>
	<line class="st0" x1="363" y1="319" x2="363" y2="318.9"/>
</g>
<g>
	<line class="st0" x1="297" y1="359" x2="297" y2="358.9"/>
</g>
<line class="st0" x1="410.2" y1="335.5" x2="426" y2="335.5"/>
<line class="st0" x1="410.2" y1="345.5" x2="426" y2="345.5"/>
<g>
	<line class="st0" x1="480" y1="314" x2="480" y2="320.9"/>
	<line class="st0" x1="483.4" y1="317.5" x2="476.6" y2="317.5"/>
</g>
<g>
	<line class="st0" x1="298" y1="314" x2="298" y2="320.9"/>
	<line class="st0" x1="301.4" y1="317.5" x2="294.6" y2="317.5"/>
</g>
</svg>
